<?xml version="1.0" encoding="UTF-8"?>
<svg width="83px" height="158px" viewBox="0 0 83 168" version="1.1" xmlns="http://www.w3.org/2000/svg" xmlns:xlink="http://www.w3.org/1999/xlink">
    <!-- Generator: Sketch 61.2 (89653) - https://sketch.com -->
    <title>google-forms-logo</title>
    <desc>Created with Sketch.</desc>
    <defs>
        <linearGradient x1="47.148752%" y1="23.107763%" x2="47.148752%" y2="123.428498%" id="linearGradient-1">
            <stop stop-color="#311B92" stop-opacity="0.2" offset="0%"></stop>
            <stop stop-color="#311B92" stop-opacity="0.02" offset="100%"></stop>
        </linearGradient>
        <radialGradient cx="5.93107384%" cy="5.25585284%" fx="5.93107384%" fy="5.25585284%" r="1287.79779%" gradientTransform="translate(0.059311,0.052559),scale(1.000000,0.755319),translate(-0.059311,-0.052559)" id="radialGradient-2">
            <stop stop-color="#FFFFFF" stop-opacity="0.1" offset="0%"></stop>
            <stop stop-color="#FFFFFF" stop-opacity="0" offset="100%"></stop>
        </radialGradient>
    </defs>
    <g id="Page-1" stroke="none" stroke-width="1" fill="none" fill-rule="evenodd">
        <g id="Desktop-HD" transform="translate(-476.000000, -206.000000)">
            <g id="Group-2" transform="translate(410.000000, 182.000000)">
                <g id="google-forms-logo" transform="translate(66.000000, 24.000000)">
                    <text id="Forms" font-family="ProductSans-Regular, Product Sans" font-size="26" font-weight="normal" line-spacing="24" letter-spacing="0.722222222" fill="#757575">
                        <tspan x="4" y="161">Forms</tspan>
                    </text>
                    <path d="M10.6392,118.672317 L10.6392,121.635795 L17.53488,121.635795 C17.33688,123.215435 16.74684,124.414056 15.9588,125.190646 C14.97408,126.17759 13.398,127.362981 10.6392,127.362981 C6.50232,127.362981 3.15216,124.006578 3.15216,119.66323 C3.15216,115.517006 6.501,111.963478 10.6392,111.963478 C13.0152,111.963478 14.5794,112.950422 15.7608,113.938689 L17.73156,111.963478 C15.9588,110.383839 13.79136,109 10.6392,109 C4.92624,109 3.55271368e-14,113.738919 3.55271368e-14,119.451553 C3.55271368e-14,125.164186 4.9236,129.903106 10.6392,129.903106 C13.79136,129.903106 16.1568,128.916161 17.92824,126.939627 C19.899,124.964416 20.48904,122.397832 20.48904,120.225497 C20.48904,119.632801 20.48904,118.842981 20.29104,118.448733 L10.63788,118.448733 L10.6392,118.672317 Z M28.17144,116.29095 C24.42792,116.29095 21.47244,119.069211 21.47244,123.005081 C21.47244,126.94095 24.42924,129.719211 28.17144,129.719211 C29.9529853,129.735258 31.6662206,129.033033 32.9260143,127.770394 C34.185808,126.507755 34.8864509,124.79065 34.87044,123.005081 C34.87044,119.055981 31.91364,116.29095 28.17144,116.29095 L28.17144,116.29095 Z M28.17144,127.139398 C26.20068,127.139398 24.42792,125.362634 24.42792,122.993174 C24.42792,120.623714 26.20068,118.86018 28.17144,118.86018 C30.1422,118.86018 31.91628,120.447758 31.91628,123.001112 C31.91628,125.554466 30.14352,127.147335 28.17276,127.147335 L28.17144,127.139398 Z M60.47184,117.672143 C59.6838,116.882323 58.50108,116.092503 56.72832,116.092503 C53.37948,116.092503 50.424,119.055981 50.424,122.806634 C50.424,126.557286 53.3808,129.520764 56.72832,129.520764 C58.3044,129.520764 59.68512,128.730944 60.27516,127.941124 L60.47316,127.941124 L60.47316,128.928068 C60.47316,131.494652 59.09376,132.877168 56.92632,132.877168 C55.15356,132.877168 53.96952,131.494652 53.57748,130.495801 L51.01668,131.482745 C51.80472,133.259509 53.78868,135.431845 56.92764,135.431845 C60.47448,135.431845 63.42864,133.456634 63.42864,128.323466 L63.42864,116.081919 L60.65664,116.081919 L60.65664,117.661559 L60.47184,117.672143 Z M57.123,127.149981 C55.15224,127.149981 53.57616,125.373217 53.57616,123.003758 C53.57616,120.634298 55.15224,118.857534 57.123,118.857534 C59.09376,118.857534 60.66984,120.634298 60.66984,123.003758 C60.66984,125.373217 59.09376,127.149981 57.123,127.149981 Z M42.73896,116.301534 C38.99544,116.301534 36.03996,119.079795 36.03996,123.015665 C36.03996,126.951534 38.99676,129.729795 42.73896,129.729795 C44.5205053,129.745842 46.2337406,129.043617 47.4935343,127.780978 C48.753328,126.518339 49.4539709,124.801234 49.43796,123.015665 C49.63596,119.066565 46.48116,116.301534 42.73896,116.301534 Z M42.73896,127.149981 C40.7682,127.149981 38.99544,125.373217 38.99544,123.003758 C38.99544,120.634298 40.7682,118.857534 42.73896,118.857534 C44.70972,118.857534 46.48248,120.437174 46.48248,123.003758 C46.48248,125.570342 44.70972,127.149981 42.73896,127.149981 Z M65.61984,109.194478 L68.57664,109.194478 L68.57664,129.729795 L65.61984,129.729795 L65.61984,109.194478 Z M76.6524,127.163211 C75.07632,127.163211 74.0916,126.373391 73.30356,125.188 L82.36668,121.436025 L81.97068,120.646205 C81.37932,119.066565 79.59468,116.301534 76.25772,116.301534 C72.71088,116.301534 69.9534,119.079795 69.9534,123.015665 C69.9373891,124.801234 70.638032,126.518339 71.8978257,127.780978 C73.1576194,129.043617 74.8708547,129.745842 76.6524,129.729795 C79.80456,129.729795 81.576,127.754584 82.36536,126.766317 L79.98936,125.186677 C79.20132,126.372068 78.2166,127.161888 76.64052,127.161888 L76.6524,127.163211 Z M76.4544,118.868118 C77.63712,118.868118 78.62184,119.460814 79.0152,120.447758 L72.90756,123.014342 C72.90756,120.050863 74.87832,118.868118 76.4544,118.868118 L76.4544,118.868118 Z" id="Shape" fill="#757575" fill-rule="nonzero"></path>
                    <g id="google-forms-icon" transform="translate(6.000000, 0.000000)" fill-rule="nonzero">
                        <path d="M44.3742207,0 L6.65800334,0 C3.10457459,0 0,3.14381271 0,6.71518395 L0,87.2848161 C0,90.8656187 3.11704276,94 6.65800334,94 L64.3419967,94 C67.8923084,94 71,90.8561873 71,87.2848161 L71,26.857592 L55.4677759,15.6687625 L44.3742207,0 Z" id="Path" fill="#673AB7"></path>
                        <path d="M26.8766003,69.6477723 L53,69.6477723 L53,65.1583073 L26.8766003,65.1583073 L26.8766003,69.6477723 Z M26.8766003,40.34594 L26.8766003,44.8544013 L53,44.8544013 L53,40.34594 L26.8766003,40.34594 Z M22.9587016,42.6033367 C22.9719896,43.5633464 22.609946,44.4881173 21.9549158,45.1673146 C21.2998857,45.8465118 20.4075545,46.2223955 19.4808788,46.2094725 C17.3049476,46.2094725 16,44.8575674 16,42.6033367 C16,40.3491061 17.3049476,39.000367 19.4808788,39.000367 C20.4072703,38.9865806 21.2996211,39.3617494 21.9547463,40.0404489 C22.6098715,40.7191483 22.9720091,41.6436098 22.9587016,42.6033367 L22.9587016,42.6033367 Z M22.9587016,55.223229 C22.9720091,56.182956 22.6098715,57.1074174 21.9547463,57.7861169 C21.2996211,58.4648164 20.4072703,58.8399852 19.4808788,58.8261988 C17.3049476,58.8261988 16,57.4742936 16,55.220063 C16,52.9658323 17.3049476,51.6170932 19.4808788,51.6170932 C20.4078083,51.6032862 21.3006382,51.9788859 21.9558562,52.6582778 C22.6110741,53.3376698 22.9728432,54.2629571 22.9587016,55.223229 L22.9587016,55.223229 Z M22.9587016,67.3935417 C22.9719896,68.3535514 22.609946,69.2783222 21.9549158,69.9575195 C21.2998857,70.6367168 20.4075545,71.0126004 19.4808788,70.9996775 C17.3049476,70.9996775 16,69.6477723 16,67.3935417 C16,65.139311 17.3049476,63.7905719 19.4808788,63.7905719 C20.4072703,63.7767855 21.2996211,64.1519543 21.9547463,64.8306538 C22.6098715,65.5093533 22.9720091,66.4338147 22.9587016,67.3935417 L22.9587016,67.3935417 Z M26.8766003,58.3797851 L53,58.3797851 L53,53.8681578 L26.8766003,53.8681578 L26.8766003,58.3797851 Z" id="Shape" fill="#F1F1F1"></path>
                        <polygon id="Path" fill="url(#linearGradient-1)" points="46 25 71 50 71 26.8194586"></polygon>
                        <path d="M44,0 L44,20.2492099 C44,23.8458387 47.1608523,27 50.7515804,27 L71,27 L44,0 Z" id="Path" fill="#B39DDB"></path>
                        <path d="M6.60185445,0 C3.07839281,0 0,3.07287094 0,6.56365233 L0,7 C0,3.5 3.09075583,0.436347673 6.60185445,0.436347673 L44,0.436347673 L44,0 L6.60185445,0 Z" id="Path" fill-opacity="0.2" fill="#FFFFFF"></path>
                        <path d="M64.3425812,93.5605795 L6.65741879,93.5605795 C3.10430202,93.5605795 0,90.4877085 0,87 L0,87.4363477 C0,90.9332748 3.1167691,94 6.65741879,94 L64.3425812,94 C67.8925812,94 71,90.9271291 71,87.4363477 L71,87 C71,90.5 67.8925812,93.5605795 64.3425812,93.5605795 Z" id="Path" fill-opacity="0.2" fill="#311B92"></path>
                        <path d="M50.7507901,26.5607723 C47.1541613,26.5607723 44,23.4892497 44,20 L44,20.4392277 C44,23.937692 47.1604823,27 50.7507901,27 L71,27 L71,26.5607723 L50.7507901,26.5607723 Z" id="Path" fill-opacity="0.1" fill="#311B92"></path>
                        <path d="M44.3742207,0 L6.65800334,0 C3.10457459,0 0,3.14381271 0,6.71518395 L0,87.2848161 C0,90.8656187 3.11704276,94 6.65800334,94 L64.3419967,94 C67.8923084,94 71,90.8561873 71,87.2848161 L71,26.857592 L44.3742207,0 Z" id="Path" fill="url(#radialGradient-2)"></path>
                    </g>
                </g>
            </g>
        </g>
    </g>
</svg>