<?xml version="1.0" encoding="UTF-8"?>
<svg width="99px" height="162px" viewBox="0 0 99 162" version="1.1" xmlns="http://www.w3.org/2000/svg" xmlns:xlink="http://www.w3.org/1999/xlink">
    <!-- Generator: Sketch 61.2 (89653) - https://sketch.com -->
    <title>google-analytics-logo</title>
    <desc>Created with Sketch.</desc>
    <g id="Page-1" stroke="none" stroke-width="1" fill="none" fill-rule="evenodd">
        <g id="Desktop-HD" transform="translate(-827.000000, -207.000000)">
            <g id="Group-3" transform="translate(769.000000, 182.000000)">
                <g id="google-analytics-logo" transform="translate(58.000000, 21.000000)">
                    <g id="Group" transform="translate(0.000000, 112.000000)" fill="#757575" fill-rule="nonzero">
                        <path d="M8.58323244,32.5935652 L11.7353924,40.8886584 L5.62775244,40.8886584 L8.58455244,32.5935652 L8.58323244,32.5935652 Z M7.40051244,29.8153043 L0.504832441,47.9798385 L3.06563244,47.9798385 L4.83839244,43.045118 L12.5207924,43.045118 L14.2935524,47.9798385 L16.8543524,47.9798385 L9.95867244,29.8153043 L7.39787244,29.8153043 L7.40051244,29.8153043 Z M44.6245124,47.9957143 L47.0005124,47.9957143 L47.0005124,29.8285342 L44.6245124,29.8285342 L44.6245124,47.9930683 L44.6245124,47.9957143 Z M20.4025124,37.3192547 C21.1905524,36.1338634 22.7785124,35.1469193 24.3427124,35.1469193 C27.4948724,35.1469193 29.0709524,37.3192547 29.0709524,40.4785342 L29.0709524,48.1782857 L26.6949524,48.1782857 L26.6949524,40.8727826 C26.6949524,38.3061988 25.3155524,37.3179317 23.5427924,37.3179317 C21.5720324,37.3179317 20.1939524,39.2931429 20.1939524,41.0699068 L20.1939524,47.9811615 L17.8179524,47.9811615 L17.8179524,35.3612422 L20.1939524,35.3612422 L20.3919524,37.3364534 L20.4025124,37.3192547 Z M31.0417124,44.2437391 C31.0417124,41.4654783 33.6025124,39.8990683 36.5593124,39.8990683 C38.3320724,39.8990683 39.5161124,40.2959627 39.9081524,40.6888882 L39.9081524,40.2919938 C39.9081524,38.3167826 38.3320724,37.3285155 36.7559924,37.3285155 C35.3765924,37.3285155 34.1951924,37.9212112 33.7991924,39.1052795 L31.6317524,38.1183354 C32.0277524,36.9329441 33.6025124,35.1548571 36.7533524,35.1548571 C39.7101524,35.1548571 42.2709524,36.9316211 42.2709524,40.486472 L42.2709524,47.9904224 L40.1035124,47.9904224 L40.1035124,46.2136584 L39.9055124,46.2136584 C39.3141524,47.2006025 37.9347524,48.3859938 35.7686324,48.3859938 C33.2078324,48.3859938 31.0403924,46.806354 31.0403924,44.2397702 M39.9055124,42.6601304 C39.9055124,42.6601304 38.9207924,41.8703106 36.9487124,41.8703106 C34.5727124,41.8703106 33.5998724,43.2528261 33.5998724,44.251677 C33.5998724,45.6341925 34.9792724,46.2268882 36.1606724,46.2268882 C37.9334324,46.2268882 39.9041924,44.6472484 39.9041924,42.6720373" id="Shape"></path>
                        <path d="M50.3506724,53.5257764 L53.1226724,47.0100932 L48.1990724,35.5570435 L50.5750724,35.5570435 L54.3185924,44.2450621 L58.0621124,35.5570435 L60.4381124,35.5570435 L52.7557124,53.5257764 L50.3797124,53.5257764 L50.3506724,53.5257764 Z M85.0270724,39.7006211 C84.4357124,38.1209814 83.0563124,37.1340373 81.6782324,37.1340373 C79.7074724,37.1340373 77.9347124,38.9108012 77.9347124,41.4787081 C77.9347124,44.0466149 79.7074724,45.8233789 81.6782324,45.8233789 C83.0576324,45.8233789 84.4502324,44.8364348 85.0270724,43.4420124 L86.9978324,44.6274037 C86.0131124,46.7997391 84.0410324,48.1822547 81.6782324,48.1822547 C78.3293924,48.1822547 75.5705924,45.2187764 75.5705924,41.4681242 C75.5705924,37.5190248 78.3425924,34.7539938 81.6782324,34.7539938 C84.0542324,34.7539938 86.0131124,36.1365093 86.9978324,38.3088447 L85.0270724,39.6913602 L85.0270724,39.7006211 Z" id="Shape"></path>
                        <path d="M93.4975124,48.3899627 C96.6496724,48.3899627 98.2257524,46.6131988 98.2257524,44.4408634 C98.2257524,39.7019441 91.3300724,41.4773851 91.3300724,38.715 C91.3300724,37.7280559 92.1181124,37.1353602 93.4975124,37.1353602 C94.8769124,37.1353602 96.2695124,37.7280559 96.8463524,38.715 L98.2257524,37.3324845 C97.4377124,36.3455404 95.2689524,34.951118 93.3021524,34.951118 C90.3453524,34.951118 88.7705924,36.727882 88.7705924,38.9002174 C88.7705924,43.4420124 95.8629524,41.8636957 95.8629524,44.2318323 C95.8629524,45.4172236 95.0749124,46.2070435 93.4869524,46.2070435 C91.8989924,46.2070435 91.1109524,45.2200994 90.3347924,44.2318323 L88.5844724,45.6275776 C89.7671924,46.8129689 91.5412724,48.4058385 93.5080724,48.4058385 L93.4975124,48.3899627 Z M71.0377124,47.9957143 L73.4137124,47.9957143 L73.4137124,35.3585963 L71.0377124,35.3585963 L71.0377124,47.9957143 Z" id="Shape"></path>
                        <path d="M72.0224324,29.2490683 C73.0071524,29.2490683 73.5985124,30.0388882 73.5985124,30.8287081 C73.5985124,31.8156522 72.8104724,32.4083478 72.0224324,32.4083478 C71.2343924,32.4083478 70.4463524,31.618528 70.4463524,30.8287081 C70.4463524,30.0388882 71.2343924,29.2490683 72.0224324,29.2490683 Z M68.6735924,46.0337329 L69.0695924,47.8104969 L66.6935924,47.8104969 C64.5261524,47.8104969 63.5414324,46.2308571 63.5414324,43.8613975 L63.5414324,37.7161491 L61.1654324,37.7161491 L61.1654324,35.3347826 L63.5414324,35.3347826 L63.5414324,31.6066211 L65.9174324,31.6066211 L65.9174324,35.3585963 L68.6894324,35.3585963 L68.6894324,37.7399627 L65.9174324,37.7399627 L65.9174324,44.255646 C65.9174324,46.0324099 67.2968324,46.0324099 68.6894324,46.0324099 L68.6735924,46.0337329 Z" id="Shape"></path>
                        <path d="M12.4838324,9.74567702 L12.4838324,12.7091553 L19.3795124,12.7091553 C19.1815124,14.288795 18.5914724,15.4874161 17.8034324,16.2640062 C16.8187124,17.2509503 15.2426324,18.4363416 12.4838324,18.4363416 C8.34695244,18.4363416 4.99679244,15.0799379 4.99679244,10.7365901 C4.99679244,6.59036646 8.34563244,3.03683851 12.4838324,3.03683851 C14.8598324,3.03683851 16.4240324,4.02378261 17.6054324,5.01204969 L19.5761924,3.03683851 C17.8034324,1.45719876 15.6359924,0.0733602484 12.4838324,0.0733602484 C6.77087244,0.0733602484 1.84463244,4.8122795 1.84463244,10.524913 C1.84463244,16.2375466 6.76823244,20.9764658 12.4838324,20.9764658 C15.6359924,20.9764658 18.0014324,19.9895217 19.7728724,18.0129876 C21.7436324,16.0377764 22.3336724,13.4711925 22.3336724,11.2988571 C22.3336724,10.7061615 22.3336724,9.91634161 22.1356724,9.52209317 L12.4825124,9.52209317 L12.4838324,9.74567702 Z M30.0160724,7.36431056 C26.2725524,7.36431056 23.3170724,10.1425714 23.3170724,14.078441 C23.3170724,18.0143106 26.2738724,20.7925714 30.0160724,20.7925714 C31.7976178,20.8086185 33.5108531,20.1063931 34.7706467,18.843754 C36.0304404,17.581115 36.7310833,15.8640101 36.7150724,14.078441 C36.7150724,10.1293416 33.7582724,7.36431056 30.0160724,7.36431056 L30.0160724,7.36431056 Z M30.0160724,18.2127578 C28.0453124,18.2127578 26.2725524,16.4359938 26.2725524,14.0665342 C26.2725524,11.6970745 28.0453124,9.93354037 30.0160724,9.93354037 C31.9868324,9.93354037 33.7609124,11.521118 33.7609124,14.074472 C33.7609124,16.6278261 31.9881524,18.2206957 30.0173924,18.2206957 L30.0160724,18.2127578 Z M62.3164724,8.74550311 C61.5284324,7.95568323 60.3457124,7.16586335 58.5729524,7.16586335 C55.2241124,7.16586335 52.2686324,10.1293416 52.2686324,13.8799938 C52.2686324,17.630646 55.2254324,20.5941242 58.5729524,20.5941242 C60.1490324,20.5941242 61.5297524,19.8043043 62.1197924,19.0144845 L62.3177924,19.0144845 L62.3177924,20.0014286 C62.3177924,22.5680124 60.9383924,23.950528 58.7709524,23.950528 C56.9981924,23.950528 55.8141524,22.5680124 55.4221124,21.5691615 L52.8613124,22.5561056 C53.6493524,24.3328696 55.6333124,26.505205 58.7722724,26.505205 C62.3191124,26.505205 65.2732724,24.5299938 65.2732724,19.3968261 L65.2732724,7.1552795 L62.5012724,7.1552795 L62.5012724,8.73491925 L62.3164724,8.74550311 Z M58.9676324,18.2233416 C56.9968724,18.2233416 55.4207924,16.4465776 55.4207924,14.077118 C55.4207924,11.7076584 56.9968724,9.93089441 58.9676324,9.93089441 C60.9383924,9.93089441 62.5144724,11.7076584 62.5144724,14.077118 C62.5144724,16.4465776 60.9383924,18.2233416 58.9676324,18.2233416 Z M44.5835924,7.37489441 C40.8400724,7.37489441 37.8845924,10.1531553 37.8845924,14.0890248 C37.8845924,18.0248944 40.8413924,20.8031553 44.5835924,20.8031553 C46.3651378,20.8192023 48.0783731,20.1169769 49.3381667,18.8543379 C50.5979604,17.5916988 51.2986033,15.874594 51.2825924,14.0890248 C51.4805924,10.1399255 48.3257924,7.37489441 44.5835924,7.37489441 Z M44.5835924,18.2233416 C42.6128324,18.2233416 40.8400724,16.4465776 40.8400724,14.077118 C40.8400724,11.7076584 42.6128324,9.93089441 44.5835924,9.93089441 C46.5543524,9.93089441 48.3271124,11.5105342 48.3271124,14.077118 C48.3271124,16.6437019 46.5543524,18.2233416 44.5835924,18.2233416 Z M67.4644724,0.267838509 L70.4212724,0.267838509 L70.4212724,20.8031553 L67.4644724,20.8031553 L67.4644724,0.267838509 Z M78.4970324,18.2365714 C76.9209524,18.2365714 75.9362324,17.4467516 75.1481924,16.2613602 L84.2113124,12.5093851 L83.8153124,11.7195652 C83.2239524,10.1399255 81.4393124,7.37489441 78.1023524,7.37489441 C74.5555124,7.37489441 71.7980324,10.1531553 71.7980324,14.0890248 C71.7820216,15.874594 72.4826645,17.5916988 73.7424581,18.8543379 C75.0022518,20.1169769 76.7154871,20.8192023 78.4970324,20.8031553 C81.6491924,20.8031553 83.4206324,18.8279441 84.2099924,17.839677 L81.8339924,16.2600373 C81.0459524,17.4454286 80.0612324,18.2352484 78.4851524,18.2352484 L78.4970324,18.2365714 Z M78.2990324,9.94147826 C79.4817524,9.94147826 80.4664724,10.5341739 80.8598324,11.521118 L74.7521924,14.0877019 C74.7521924,11.1242236 76.7229524,9.94147826 78.2990324,9.94147826 L78.2990324,9.94147826 Z" id="Shape"></path>
                    </g>
                    <g>
                        <rect id="Rectangle" x="0" y="0" width="99" height="99"></rect>
                        <g id="Group" transform="translate(10.000000, 4.000000)" fill-rule="nonzero">
                            <path d="M57.1710526,10.8579545 L57.1710526,79.1079545 C57.1710526,86.7447159 62.4671711,91 68.0855263,91 C73.2828947,91 79,87.3806818 79,79.1079545 L79,11.375 C79,4.37420455 73.8026316,0 68.0855263,0 C62.3684211,0 57.1710526,4.82403409 57.1710526,10.8579545 Z" id="Path" fill="#F9AB00"></path>
                            <path d="M28.5855263,45.5 L28.5855263,79.1079545 C28.5855263,86.7447159 33.8816447,91 39.5,91 C44.6973684,91 50.4144737,87.3806818 50.4144737,79.1079545 L50.4144737,46.0170455 C50.4144737,39.01625 45.2171053,34.6420455 39.5,34.6420455 C33.7828947,34.6420455 28.5855263,39.4660795 28.5855263,45.5 Z" id="Path" fill="#E37400"></path>
                            <ellipse id="Oval" fill="#E37400" cx="10.9144737" cy="80.1420455" rx="10.9144737" ry="10.8579545"></ellipse>
                        </g>
                    </g>
                </g>
            </g>
        </g>
    </g>
</svg>